<?xml version="1.0" encoding="UTF-8"?>
<svg id="Calque_1" data-name="Calque 1" xmlns="http://www.w3.org/2000/svg" version="1.1" viewBox="0 0 65.16 37.04" role="img" aria-labelledby="bx6wix4t9pxpwxnohrhrmms3wexsw2o m439lk7mopdzmouktv2o689pl59wmd2">
  <defs>
    <style>
      .cls-1 {
        fill: #221f20;
        stroke-width: 0px;
      }
    </style>
  </defs>
  <g>
    <path class="cls-1" d="M7.66,1.2h-3.25V.18h7.71v1.02h-3.24v7.5h-1.21V1.2Z"/>
    <path class="cls-1" d="M13.55.18h1.2v3.44h5.13V.18h1.2v8.52h-1.2v-4.06h-5.13v4.06h-1.2V.18Z"/>
    <path class="cls-1" d="M29.89,4.73h-5.11v2.95h5.64l-.16,1.02h-6.68V.18h6.58v1.02h-5.38v2.52h5.11v1.02Z"/>
    <path class="cls-1" d="M37.8,1.2h-3.25V.18h7.71v1.02h-3.24v7.5h-1.21V1.2Z"/>
    <path class="cls-1" d="M51.75,4.41c0,2.41-1.63,4.47-4.49,4.47s-4.46-1.97-4.46-4.47c0-2.36,1.76-4.41,4.5-4.41s4.45,2.05,4.45,4.41ZM44.08,4.38c0,1.83,1.12,3.49,3.23,3.49s3.17-1.58,3.17-3.43-1.11-3.43-3.24-3.43c-1.99,0-3.15,1.57-3.15,3.37Z"/>
    <path class="cls-1" d="M53.66.18h4c2.12,0,3.08,1.09,3.08,2.51,0,1.67-1.15,2.61-3.04,2.61h-2.83v3.41h-1.21V.18ZM54.87,4.28h2.66c1.17,0,1.99-.34,1.99-1.57,0-.97-.65-1.52-1.99-1.52h-2.66v3.09Z"/>
  </g>
  <g>
    <path class="cls-1" d="M9.1,22.91c.26-.06.55-.18.85-.37s.6-.49.89-.91c.13-.19.19-.36.19-.51,0-.19-.1-.29-.29-.29-.02,0-.03,0-.04,0-.01,0-.02,0-.04,0-.53,1.1-1.38,1.65-2.55,1.65-.29,0-.56-.03-.81-.09-.25-.06-.48-.16-.7-.29s-.42-.31-.62-.54-.38-.5-.56-.83h-.07c-.08,0-.15.02-.21.06s-.09.1-.09.2c0,.13.04.26.13.4.16.27.34.5.53.7.19.19.39.36.58.49.2.13.4.23.59.3s.37.11.53.12l-.09,2.12c-.19.13-.4.24-.61.35-.21.1-.46.19-.72.26-.27.07-.57.12-.92.16-.34.04-.73.06-1.17.06s-.86-.04-1.31-.12-.88-.22-1.26-.41c-.38-.19-.7-.44-.95-.74-.25-.3-.38-.67-.38-1.11,0-.23.01-.55.03-.95.02-.4.05-.85.1-1.36.04-.51.09-1.06.14-1.65s.11-1.19.17-1.79c.06-.6.12-1.2.18-1.79s.12-1.14.18-1.65.11-.96.16-1.36c.05-.4.09-.71.13-.93.22-.19.46-.36.74-.49s.57-.24.87-.32c.3-.08.61-.13.92-.17.31-.03.6-.05.89-.05.51,0,1.01.06,1.5.17.49.11.9.26,1.22.44l.62,2.07-.39,1.65c-.02.06-.03.12-.03.17s-.01.1-.01.16c0,.25.15.39.45.4l1.07-4.44c.13-.07.29-.14.49-.21.2-.07.42-.14.66-.2.24-.06.51-.11.79-.15s.58-.06.88-.06c.53,0,1,.04,1.4.13.4.09.74.22,1.01.42.27.19.49.44.65.75s.26.69.31,1.13c.05.47.12,1.04.2,1.71.08.67.16,1.37.24,2.12.08.75.16,1.5.25,2.26s.16,1.48.22,2.15c.06.67.12,1.26.16,1.78.04.52.06.9.06,1.15-.83.88-2.03,1.31-3.59,1.31-.49,0-.95-.04-1.36-.12s-.77-.21-1.06-.38c-.3-.17-.53-.38-.71-.62-.18-.25-.28-.54-.31-.88l-.1-1.06Z"/>
    <path class="cls-1" d="M23.75,26.12c-.63,0-1.25-.07-1.86-.2-.61-.13-1.19-.33-1.74-.6s-1.05-.61-1.51-1.02c-.46-.41-.86-.9-1.2-1.46s-.6-1.2-.79-1.92-.28-1.52-.28-2.4c0-1.31.2-2.44.61-3.4.4-.96.94-1.74,1.62-2.37.67-.62,1.45-1.09,2.33-1.39.88-.3,1.8-.45,2.76-.45,1.14,0,2.16.19,3.07.56.91.37,1.67.89,2.3,1.56s1.11,1.47,1.45,2.4.51,1.97.51,3.09c0,1.33-.19,2.48-.57,3.44-.38.96-.9,1.75-1.55,2.36-.66.62-1.42,1.07-2.3,1.36-.88.29-1.82.44-2.84.44ZM24.2,18.02c0-.36,0-.67-.02-.93-.02-.26-.04-.47-.08-.65-.04-.16-.09-.26-.15-.31-.06-.05-.14-.08-.22-.08s-.15.01-.19.04c-.04.03-.08.05-.11.07,0,.13.02.26.03.38.02.12.03.25.04.39.01.15.02.31.03.51,0,.19.01.42.01.7v.73c0,.28,0,.51-.01.7,0,.19-.02.36-.03.5-.01.15-.02.28-.04.39-.02.12-.03.24-.03.38.03.02.07.05.11.07.04.03.11.04.19.04s.16-.03.22-.08c.06-.05.11-.16.15-.31.04-.17.06-.39.08-.65.02-.26.02-.57.02-.93v-.98Z"/>
    <path class="cls-1" d="M30.83,12.62c.34-.5.79-.89,1.36-1.16.57-.27,1.24-.4,1.99-.4.59,0,1.1.07,1.52.2.42.13.78.3,1.07.52.29.21.53.46.7.74.18.28.31.57.41.87l-.36,7.13c.09.02.17.03.24.03.12,0,.22-.04.29-.12.07-.08.11-.23.13-.44l.49-8.18c.13-.11.31-.21.53-.3.23-.09.48-.17.75-.23.27-.06.54-.11.83-.15.28-.04.54-.06.78-.06.59,0,1.1.07,1.53.22.43.15.78.35,1.06.6s.48.55.61.88c.13.33.19.69.19,1.07,0,.46-.18,1.47-.54,3.04-.36,1.57-.9,3.73-1.61,6.49-.13.51-.35.93-.65,1.26-.3.33-.65.6-1.08.79-.42.19-.9.33-1.42.42s-1.08.12-1.66.12c-.4,0-.79-.02-1.17-.07s-.75-.11-1.1-.2c-.35-.09-.67-.19-.97-.33-.3-.13-.56-.28-.79-.45-.28-.61-.57-1.35-.86-2.23-.3-.88-.59-1.85-.87-2.92-.28-1.07-.54-2.21-.79-3.41-.24-1.21-.45-2.45-.61-3.73Z"/>
    <path class="cls-1" d="M50.69,25.64c-.56.22-1.24.33-2.04.33-.42,0-.82-.04-1.21-.13s-.73-.23-1.03-.41c-.3-.18-.53-.42-.71-.7-.18-.28-.26-.61-.26-.99v-11.6c.31-.27.74-.51,1.31-.73.56-.22,1.24-.33,2.04-.33.42,0,.82.04,1.21.13s.73.23,1.03.41c.3.18.53.42.71.7.18.28.26.61.26.99v11.6c-.31.27-.74.51-1.31.73Z"/>
    <path class="cls-1" d="M64.36,11.28c.1.16.19.33.27.52.08.19.15.39.2.59.05.21.09.41.12.62.03.21.04.4.04.58,0,.77-.15,1.34-.45,1.72s-.71.56-1.24.56h-4.53c-.28,0-.42.11-.42.33v.09s0,.07.02.09h5.37c.07.11.13.25.19.4.06.15.11.31.15.48.04.17.07.34.1.52.03.18.04.34.04.5,0,.45-.04.85-.13,1.21-.09.36-.21.65-.36.88h-2.44c-.64,0-1.16.02-1.58.05-.42.03-.74.08-.98.13s-.41.11-.51.17c-.1.06-.15.13-.15.2,0,.06,0,.12.03.17.02.05.06.1.13.13.19-.06.38-.11.57-.16s.41-.08.65-.11c.24-.03.51-.05.8-.06.3-.02.64-.02,1.03-.02h3.16c.08.12.16.25.25.4.08.15.16.31.22.51.06.19.12.41.16.66.04.25.06.53.06.85,0,.2-.02.42-.04.65-.03.23-.07.45-.13.68s-.14.44-.24.64-.21.38-.35.53h-8.41c-.44,0-.85-.05-1.24-.16-.38-.11-.71-.28-1-.51-.28-.23-.51-.52-.67-.86-.16-.35-.25-.77-.25-1.25v-10.68c0-.36.42-.62,1.25-.79s2.1-.25,3.81-.25h6.48Z"/>
  </g>
  <g>
    <path class="cls-1" d="M8.47,34.38c.31,1,1.04,1.7,2.72,1.7s2.32-.65,2.32-1.44c0-.84-.47-1.35-2.67-1.72-2.56-.43-3.18-1.24-3.18-2.4,0-1.5,1.42-2.35,3.28-2.35,2.77,0,3.42,1.45,3.52,2.31h-1.22c-.17-.58-.53-1.35-2.33-1.35-1.23,0-2.02.42-2.02,1.27,0,.7.35,1.14,2.28,1.46,3.08.52,3.57,1.48,3.57,2.66,0,1.36-1.08,2.52-3.65,2.52-2.38,0-3.58-1.09-3.86-2.65h1.23Z"/>
    <path class="cls-1" d="M22.96,32.89h-5.11v2.95h5.64l-.16,1.02h-6.68v-8.52h6.58v1.02h-5.38v2.52h5.11v1.02Z"/>
    <path class="cls-1" d="M25.25,28.34h1.2v7.5h5.14l-.18,1.03h-6.15v-8.52Z"/>
    <path class="cls-1" d="M39.24,32.89h-5.11v2.95h5.64l-.16,1.02h-6.68v-8.52h6.58v1.02h-5.38v2.52h5.11v1.02Z"/>
    <path class="cls-1" d="M49.31,34.37c-.49,1.46-1.56,2.67-3.98,2.67-2.83,0-4.37-1.98-4.37-4.42s1.71-4.46,4.43-4.46c2.46,0,3.62,1.32,3.95,2.72h-1.24c-.37-.89-1.05-1.72-2.73-1.72-1.96,0-3.14,1.44-3.14,3.41s1.17,3.46,3.15,3.46c1.6,0,2.25-.69,2.71-1.67h1.22Z"/>
    <path class="cls-1" d="M53.46,29.36h-3.25v-1.02h7.71v1.02h-3.24v7.5h-1.21v-7.5Z"/>
  </g>
</svg>
